<svg xmlns="http://www.w3.org/2000/svg" viewBox="-1 -1 37.49 37.48" width="512" height="512">
  <g transform="translate(0.5,0.5) scale(0.98)">
  <defs>
    <style>
      .cls-1{fill:#fff}
    </style>
    <linearGradient id="linear-gradient" x1="17.74" x2="17.74" y1=".96" y2="34.53" gradientUnits="userSpaceOnUse">
      <stop offset="0" stop-color="#fff"/>
      <stop offset=".1" stop-color="#ecedf1"/>
      <stop offset=".54" stop-color="#98a2b4"/>
      <stop offset=".85" stop-color="#64728e"/>
      <stop offset="1" stop-color="#50607f"/>
    </linearGradient>
  </defs>
  <g id="Layer_2" data-name="Layer 2">
    <g id="Layer_1-2" data-name="Layer 1">
      <path d="M33.19 17.2l1.48 7.82-1.29 8.23-8.8 1.42-6.7-1.58-.17-.04-7.05 1.62-7.95-1.42-.02-.04-1.87-8.45 1.09-6.72v-.02l-1.1-7.2.97-8.32h.02L10.55.8l6.77 1.34.06.02L24.48.8l8.04 1.17V2l2.15 8.37-1.48 6.81-.02.01z" class="cls-1"/>
      <path d="M24.49.8l8.03 1.17V2l2.15 8.37-1.49 6.8v.02l1.5 7.83-1.3 8.23-8.8 1.42-6.7-1.58-.17-.04-7.05 1.62-7.95-1.42-.02-.04-1.87-8.45 1.09-6.72v-.02l-1.1-7.2.97-8.32h.02L10.55.8l6.77 1.35.06.01 7.1-1.35M10.56 0l-.15.03L1.64 1.7H1.6l-.56.12-.06.57-.96 8.33-.01.1v.1l1.1 7.1-1.1 6.6v.15l.02.15 1.88 8.45v.04l.12.52.52.1 7.95 1.4.16.04.16-.03 6.89-1.58 6.69 1.58.15.03.15-.02 8.8-1.42.58-.1.09-.57 1.29-8.22.02-.14-.03-.13L34 17.2l1.46-6.65.04-.2-.05-.17L33.3 1.8v-.03l-.14-.51-.52-.08L24.6.02 24.47 0l-.13.03-6.96 1.33L10.7.03 10.55 0z"/>
      <g opacity=".7">
        <path fill="url(#linear-gradient)" d="M18.1 18.28l15 14.88-8.45 1.37zm-.47.07l.12 14.58h-.01l-6.88 1.56zM.96 24.85L17.2 18.1 2.76 32.94zm17.42-6.99h.14-.04l14.6-.53 1.42 7.47zM.98 11.03l16.1 6.6L2 17.89zm31.48-8.77l2.06 8.03-16.26 7.1zm-30.4.3l8.4-1.6 6.92 16.26zm15.4-.28l6.82-1.3-6.43 16.1z"/>
        <path d="M10.4 1.1L17 16.7 2.35 2.64l8.04-1.54m13.67.07l-6.1 15.28L17.6 2.4l6.46-1.24m8.33 1.37l1.97 7.7L18.8 17 32.4 2.53m-31.25 8.7l15.3 6.27-14.32.26-.98-6.52m31.83 6.22l1.35 7.12L19.07 18l.25.02-.17-.05 13.83-.5m-16.3 1L2.84 32.68 1.1 24.92l15.57-6.45m1.79.35l14.37 14.25-8.1 1.3-6.27-15.55m-.95.18l.1 13.8-6.53 1.5L17.5 19m7-18.2l-7.12 1.36h-.06l.42 15.56-7.2-16.9L1.8 2.5l15.94 15.24L.8 10.82l1.1 7.2 15.82-.28-16.9 7.02 1.87 8.45 15.06-15.46-7.1 16.92 7.07-1.62.17.04-.12-15.28 6.82 16.86 8.8-1.42-15.6-15.47-.02-.02v-.02l16.91 7.28-1.48-7.83-15.44.55 16.9-7.37L32.54 2 17.75 17.73 24.48.8zm-6.75 16.94zm-.02 0z" class="cls-1"/>
      </g>
      <path d="M24.5 12.34a5.06 5.06 0 0 0-1.9-2.18 4.77 4.77 0 0 0-2.47-.69 4.08 4.08 0 0 0-1.7.33 3.57 3.57 0 0 0-1.23.9 4.1 4.1 0 0 0-.76 1.24h-.11v-2.3h-4.67v18.03h4.71V20.6h.07a3.65 3.65 0 0 0 2 2.02 4.17 4.17 0 0 0 1.64.3 4.78 4.78 0 0 0 2.6-.73 5.1 5.1 0 0 0 1.87-2.23 8.79 8.79 0 0 0 .7-3.75 8.7 8.7 0 0 0-.74-3.87zm-4.35 5.53a2.32 2.32 0 0 1-.7 1.07 1.84 1.84 0 0 1-2.22 0 2.4 2.4 0 0 1-.72-1.09 4.8 4.8 0 0 1-.25-1.64 4.93 4.93 0 0 1 .25-1.67 2.37 2.37 0 0 1 .72-1.08 1.73 1.73 0 0 1 1.12-.37 1.68 1.68 0 0 1 1.1.35 2.36 2.36 0 0 1 .7 1.08 5.17 5.17 0 0 1 .24 1.67 5.12 5.12 0 0 1-.24 1.66z"/>
      <path d="M25.22 11.99a5.86 5.86 0 0 0-2.2-2.51 5.58 5.58 0 0 0-2.88-.8 4.88 4.88 0 0 0-2.04.4 4.53 4.53 0 0 0-.97.6v-.84h-6.26v19.62h6.3V22.8a4.67 4.67 0 0 0 .98.55 4.98 4.98 0 0 0 1.94.37 5.58 5.58 0 0 0 3-.86 5.9 5.9 0 0 0 2.18-2.56 9.6 9.6 0 0 0 .78-4.1 9.5 9.5 0 0 0-.82-4.21zm-.67 7.97a5.1 5.1 0 0 1-1.88 2.23 4.78 4.78 0 0 1-2.6.73 4.17 4.17 0 0 1-1.62-.3 3.65 3.65 0 0 1-2-2.02h-.08v7.07h-4.71V9.63h4.67v2.3h.11a4.1 4.1 0 0 1 .76-1.23 3.57 3.57 0 0 1 1.22-.9 4.08 4.08 0 0 1 1.7-.33 4.77 4.77 0 0 1 2.48.7 5.06 5.06 0 0 1 1.9 2.17 8.7 8.7 0 0 1 .75 3.87 8.79 8.79 0 0 1-.7 3.75z" class="cls-1"/>
      <path d="M20.39 16.2a5.12 5.12 0 0 1-.24 1.67 2.32 2.32 0 0 1-.7 1.07 1.84 1.84 0 0 1-2.22 0 2.4 2.4 0 0 1-.72-1.09 4.8 4.8 0 0 1-.25-1.64 4.93 4.93 0 0 1 .25-1.67 2.37 2.37 0 0 1 .72-1.08 1.73 1.73 0 0 1 1.12-.37 1.68 1.68 0 0 1 1.1.35 2.36 2.36 0 0 1 .7 1.08 5.17 5.17 0 0 1 .24 1.67z" class="cls-1"/>
    </g>
  </g>
</svg>
